<svg xmlns="http://www.w3.org/2000/svg" aria-hidden="true" style="position:absolute;width:0;height:0;overflow:hidden"><defs><symbol id="icon-diagram" viewBox="0 0 32 32"><path fill="#4d5ae5" d="M14.925 14.965h1.066v4.797h-1.066v-4.797zm4.265 2.132h1.066v2.665H19.19v-2.665zm-8.529 1.599h1.066v1.066h-1.066v-1.066zm-3.198-.533h1.066v1.599H7.463v-1.599z" style="fill:var(--color1, #4d5ae5)"/><path fill="#2e2f42" d="M1.599 28.291h25.587c.883 0 1.599-.716 1.599-1.599v-2.133c0-.883-.716-1.599-1.599-1.599h-.534V9.667l3.028-2.868c.207.105.452.166.711.166.888 0 1.608-.72 1.608-1.608s-.72-1.608-1.608-1.608c-.888 0-1.608.72-1.608 1.608 0 .247.055.48.155.689l-.004-.01-2.282 2.163v-1.23c0-.883-.716-1.599-1.599-1.599H3.73c-.883 0-1.599.716-1.599 1.599V22.961h-.533c-.883 0-1.599.716-1.599 1.599v2.134c0 .883.716 1.599 1.599 1.599zM30.384 4.837c.294 0 .533.239.533.533s-.239.533-.533.533c-.294 0-.533-.239-.533-.533s.239-.533.533-.533zM3.199 6.969c0-.295.239-.534.533-.534h21.322c.294 0 .533.239.533.534v2.238l-1.066 1.013V8.035c0-.295-.238-.533-.533-.533H4.798c-.295 0-.533.239-.533.533v13.326c0 .295.239.534.533.534h19.19c.294 0 .533-.239.533-.534v-9.674l1.066-1.01V22.96H3.199V6.969zm4.797 6.93h-.005c-.883 0-1.599.716-1.599 1.599s.716 1.599 1.599 1.599c.432 0 .824-.171 1.112-.45l1.853.93c.215.108.476.057.636-.123l3.938-4.431 3.872 2.902c.208.156.498.139.686-.04l3.365-3.188v8.131H5.33V8.568h18.124v2.66L19.682 14.8l-3.905-2.928a.53134.53134 0 0 0-.319-.106c-.158 0-.3.069-.398.178v.001l-3.993 4.493-1.493-.746c.011-.064.018-.129.021-.194 0-.883-.716-1.599-1.599-1.599zm.533 1.599c0 .294-.239.533-.533.533s-.533-.239-.533-.533c0-.294.239-.533.533-.533s.533.239.533.533zm3.198 8.528h5.331v.533c0 .294-.238.533-.533.533h-4.264c-.294 0-.533-.239-.533-.533v-.533zm-10.661.534c0-.294.239-.533.533-.533h9.062v.533c0 .883.716 1.599 1.599 1.599h4.265c.883 0 1.599-.716 1.599-1.599v-.534h9.061c.295 0 .534.238.534.533v2.133c0 .294-.239.533-.534.533H1.599c-.294 0-.533-.239-.533-.533v-2.133z" style="fill:var(--color2, #2e2f42)"/></symbol><symbol id="icon-clock" viewBox="0 0 32 32"><path fill="#2e2f42" d="M31.297 15.301C31.295 6.849 24.442-.002 15.989 0S.686 6.855.688 15.308C.69 22.096 5.11 27.851 11.229 29.853l.108.031c.06.019.123.029.187.029.121 0 .239-.032.342-.093.135-.08.236-.207.284-.357l3.865-12.25c1.054-.004 1.906-.859 1.906-1.913 0-1.057-.856-1.913-1.913-1.913-.303 0-.59.07-.844.196l.011-.005-5.106-5.107c-.115-.115-.275-.187-.451-.187-.352 0-.638.285-.638.638 0 .176.071.336.187.451l5.104 5.109c-.121.241-.191.525-.191.826 0 .601.283 1.137.723 1.48l.004.003-3.683 11.673C3.846 25.783.119 17.71 2.801 10.432 5.482 3.155 13.556-.573 20.833 2.109s11.004 10.755 8.323 18.032c-1.345 3.581-4.004 6.406-7.374 7.938l-.088.036-.398-1.875c-.063-.291-.318-.505-.624-.505-.163 0-.312.061-.425.162l.001-.001-3.837 3.425c-.132.117-.214.287-.214.477 0 .283.185.524.441.607l.005.001 4.899 1.564c.058.02.126.031.196.031.352 0 .637-.285.637-.637 0-.047-.005-.093-.015-.137l.001.004-.391-1.839c5.528-2.374 9.329-7.772 9.329-14.057v-.034.002zm-15.305-.637c.352 0 .638.286.638.638s-.286.638-.638.638c-.352 0-.638-.286-.638-.638s.286-.638.638-.638zm2.101 14.863 2.184-1.948.603 2.84-2.787-.892z" style="fill:var(--color2, #2e2f42)"/><path fill="#4d5ae5" d="M15.354 3.185V4.46c0 .352.285.638.637.638s.638-.285.638-.638V3.185c-.014-.341-.294-.613-.637-.613s-.624.271-.637.611v.001zM3.876 14.664c-.352 0-.637.285-.637.637s.285.637.638.637h1.275c.352 0 .638-.285.638-.637s-.285-.637-.638-.637H3.877zm24.232 1.275c.352 0 .637-.285.637-.637s-.285-.637-.637-.637h-1.275c-.341.014-.613.294-.613.637s.271.624.611.637H28.107z" style="fill:var(--color1, #4d5ae5)"/></symbol><symbol id="icon-antena" viewBox="0 0 32 32"><path fill="#2e2f42" d="m30.773 22.098-8.443-8.505.937-4.615c.242.094.499.143.759.145h.032c1.192 0 2.159-.967 2.159-2.159s-.967-2.159-2.159-2.159c-1.192 0-2.159.967-2.159 2.159 0 .26.046.508.13.739l-.005-.015-4.96.605L8.973.16C8.877.062 8.744.001 8.597 0c-.14.001-.274.057-.373.155L6.711 1.659c-.097.097-.156.23-.156.377s.06.281.156.377l.814.825C6.382 5.3 5.709 7.76 5.709 10.377c0 4.106 1.656 7.825 4.336 10.526l-.001-.001c.042.041.091.073.146.098-.032.164-.051.353-.052.546v6.188h-6.4c-1.472.001-2.666 1.194-2.667 2.666v1.067c0 .295.239.533.534.533h24.534c.294 0 .534-.239.534-.534v-1.067c-.002-1.472-1.195-2.665-2.667-2.666h-6.4v-2.742c1.003.21 2.024.317 3.049.32 2.58-.003 5.005-.663 7.117-1.822l-.077.039.819.823c.099.101.235.159.377.16.14-.001.274-.056.373-.155l1.512-1.505c.096-.097.156-.23.156-.377s-.06-.28-.156-.377zM23.28 6.233c.193-.192.458-.31.752-.31.589 0 1.067.478 1.067 1.066s-.477 1.066-1.067 1.066h-.003c-.587-.003-1.061-.479-1.061-1.066 0-.296.12-.563.315-.756h-.002zm-1.256 3.505-.599 2.945-1.175-1.182 1.774-1.764zm-.605-.902-1.92 1.909-1.485-1.493 3.405-.415zM24.004 28.8c.884 0 1.6.716 1.6 1.6v.534H2.138V30.4c0-.884.716-1.6 1.6-1.6h20.267zm-7.466-2.134v1.067h-5.334v-1.067h5.334zM11.204 25.6v-4.053c0-1.294 1.197-2.346 2.666-2.346s2.667 1.053 2.667 2.346V25.6h-5.334zm6.4-1.696v-2.357c0-1.882-1.675-3.413-3.733-3.413h-.059c-1.353 0-2.54.707-3.213 1.771l-.009.016c-2.36-2.482-3.811-5.846-3.811-9.549 0-2.314.567-4.496 1.569-6.414l-.036.077 18.602 18.709c-1.823.947-3.98 1.502-6.266 1.502-1.079 0-2.128-.124-3.136-.357l.093.018zm11.289-.683L7.836 2.041l.755-.752 7.935 7.98c.003 0 .006.007.009.009l13.114 13.191-.757.752z" style="fill:var(--color2, #2e2f42)"/><path fill="#4d5ae5" d="M13.876 20.267h-.007c-.884 0-1.6.716-1.6 1.6s.715 1.599 1.597 1.6h.007c.884 0 1.6-.716 1.6-1.6s-.715-1.599-1.597-1.6zm.373 1.978c-.096.096-.229.155-.376.155-.295 0-.534-.239-.534-.534v-.002c.002-.292.238-.529.53-.53.293.002.531.24.531.534 0 .148-.06.281-.157.378h.005z" style="fill:var(--color1, #4d5ae5)"/></symbol><symbol id="icon-astronaut" viewBox="0 0 32 32"><path fill="#4d5ae5" d="M31.974 4.524c-.064-.191-.227-.332-.427-.362h-.003l-1.911-.278-.855-1.731c-.179-.365-.776-.365-.956 0l-.855 1.731-1.91.278c-.26.038-.457.26-.457.528 0 .15.062.285.161.382l1.383 1.348-.326 1.903c-.034.2.048.402.212.521.166.12.383.136.562.04l1.709-.899 1.709.899c.072.038.157.06.247.06.295 0 .534-.239.534-.534 0-.031-.003-.062-.008-.092v.003l-.326-1.903L31.84 5.07c.099-.097.161-.233.161-.382 0-.059-.009-.115-.027-.168l.001.004zm-2.463 1.327c-.125.122-.183.299-.153.472l.191 1.114-1-.526c-.072-.039-.158-.062-.248-.062s-.177.023-.251.063l.003-.001-1 .526.191-1.114c.005-.027.008-.058.008-.09 0-.15-.062-.285-.161-.382l-.81-.79 1.119-.162c.174-.025.324-.135.401-.292l.5-1.013.501 1.013c.078.157.228.267.402.292l1.119.162-.809.79zm-3.377 14.671h-1.067v1.067h1.067v-1.067zm0 2.133h-1.067v1.067h1.067v-1.067z" style="fill:var(--color1, #4d5ae5)"/><path fill="#4d5ae5" d="M27.2 21.589h-1.067v1.067H27.2v-1.067zm-2.133 0H24v1.067h1.067v-1.067zm-2.667 4.8h-1.067v1.067H22.4v-1.067zm0 2.134h-1.067v1.067H22.4v-1.067zm1.067-1.067H22.4v1.067h1.067v-1.067zM21.334 27.456h-1.067v1.067h1.067v-1.067zM16 24.256h-1.066v1.067H16v-1.067zm0 2.133h-1.066v1.067H16v-1.067zm1.067-1.066H16v1.067h1.067v-1.067zm-2.133 0h-1.067v1.067h1.067v-1.067zM5.867 6.122H4.801v1.066h1.066V6.122zm0 2.133H4.801v1.067h1.066V8.256zm1.066-1.066H5.867v1.067h1.066V7.189zm-2.133 0H3.733v1.067H4.8V7.189z" style="fill:var(--color1, #4d5ae5)"/><path fill="#2e2f42" d="M24.715 14.159c-.28-.377-.699-.636-1.179-.704l-.009-.001c-.076-.012-.164-.018-.254-.018-.411 0-.789.139-1.09.374l.004-.003-1.252.96-1.898 1.417-1.358-.541c2.421-1.086 4.114-3.508 4.114-6.32 0-3.823-3.122-6.933-6.961-6.933S7.87 5.5 7.87 9.323c0 1.386.414 2.674 1.12 3.758l-2.769-.024c-.008 0-.015.005-.024.005-.056.002-.109.013-.159.032l.004-.001c-.013.005-.026.008-.038.014-.006.002-.013.003-.019.007l-3.234 1.597-1.893.911c-.024.011-.045.023-.064.036l.001-.001c-.482.324-.794.866-.794 1.482 0 .297.073.576.201.822l-.005-.01c.22.429.595.745 1.056.89.161.053.345.083.537.083.308 0 .598-.078.851-.216l-.009.005 1.388-.738 2.264-1.169 1.357-.008-5.442 5.415c0 .001-.001.001-.002.002L.858 23.548c-.303.299-.49.714-.49 1.173v.005c0 .445.173.863.49 1.178.325.323.752.485 1.179.485s.855-.162 1.18-.485l1.314-1.308 1.741-1.3.901.897-3.102 3.088c-.303.299-.49.714-.49 1.173v.005c0 .445.174.863.49 1.179.325.323.752.485 1.18.485s.855-.162 1.18-.485l3.482-3.466c0-.001 0-.002.001-.002l1.01-1-.004-.003c.007-.006.015-.009.022-.015l5.166-5.658 3.471.494c.02.003.044.004.068.004.07 0 .137-.014.198-.039l-.004.001c.017-.006.033-.015.05-.023.019-.009.039-.015.057-.027l3.213-2.134c.012-.008.018-.02.029-.029.012-.01.029-.014.04-.025l1.272-1.192c.347-.326.564-.787.564-1.299 0-.4-.132-.77-.355-1.067l.003.005zM2.13 17.77c-.173.093-.37.111-.558.052-.295-.093-.505-.364-.505-.683 0-.236.114-.445.29-.575l.002-.001 1.314-.632.316.925.133.388-.993.527zm3.498-1.827-1.548.8-.255-.747-.183-.537 2.026-1-.04 1.483zm15.099-6.621c0 .918-.219 1.785-.599 2.559l-4.181-1.899c-.043-.575-.342-1.073-.782-1.384l-.006-.004 1.464-4.86c2.378.755 4.105 2.974 4.105 5.587zm-11.789 0c0-3.235 2.644-5.867 5.894-5.867.253 0 .5.022.745.053l-1.432 4.753c-.019 0-.037-.005-.057-.005h-.001c-1.032 0-1.869.835-1.871 1.866.003 1.031.84 1.867 1.871 1.867h.001c.694 0 1.294-.383 1.618-.944l3.863 1.755c-1.075 1.447-2.795 2.39-4.736 2.39-3.25 0-5.895-2.633-5.895-5.867zm5.957.8c0 .441-.362.8-.806.8h-.002c-.443 0-.802-.358-.804-.8 0-.441.361-.8.806-.8s.806.359.806.8zM2.465 25.146c-.11.108-.261.175-.428.175s-.317-.067-.427-.175c-.109-.108-.176-.257-.176-.422s.067-.315.176-.422l.962-.959.851.848-.958.955zm3.213 3.734c-.11.109-.261.176-.428.176s-.317-.067-.427-.175c-.109-.108-.176-.257-.176-.422s.067-.315.176-.422l.963-.959.852.848-.96.955zm3.483-3.469-.002.001-1.765 1.76-.851-.848 1.763-1.756s.001 0 .002-.001c.04-.04.065-.088.09-.135.007-.014.02-.026.026-.04.017-.041.019-.085.025-.129.004-.024.014-.047.014-.073 0-.035-.012-.07-.02-.105-.007-.032-.007-.065-.018-.096-.02-.05-.055-.095-.091-.137-.01-.012-.014-.027-.025-.038h-.001l-.001-.002-1.607-1.6c-.017-.017-.039-.024-.058-.038-.025-.021-.054-.04-.084-.056l-.003-.001c-.027-.013-.058-.024-.09-.032l-.003-.001c-.03-.009-.065-.017-.101-.02h-.022c-.026 0-.052.002-.077.006h.003c-.039.004-.074.011-.108.021l.004-.001c-.036.013-.067.028-.096.046l.002-.001c-.02.011-.043.015-.061.029l-1.774 1.324-.901-.897 2.399-2.386 4.36 4.289-.927.919zm6.818-7.017c-.015-.002-.03.004-.045.003-.008 0-.017-.001-.026-.001-.031 0-.062.003-.092.008h.003c-.03.005-.059.011-.088.021-.037.013-.069.029-.098.048l.002-.001a.554.554 0 0 0-.083.061c-.013.011-.028.017-.04.029l-4.698 5.146-4.328-4.257 2.833-2.818c.096-.097.156-.23.156-.377 0-.295-.239-.534-.534-.534H8.94l-2.219.013.027-1.607 3.104.027c1.264 1.297 3.027 2.101 4.978 2.101h.003c.438 0 .864-.045 1.279-.122.04.032.079.064.13.085l2.41.96.331 1.643-3.003-.427zm4.041.179-.314-1.558 1.447-1.08.947 1.257-2.08 1.381zm3.754-2.831-.838.785-.931-1.236.831-.637c.155-.12.351-.168.543-.143.194.027.364.128.48.284.217.292.18.699-.085.947z" style="fill:var(--color2, #2e2f42)"/><path fill="#2e2f42" d="m13.602 18.544-2.143-2.134c-.096-.096-.229-.155-.376-.155s-.28.059-.376.155l-2.143 2.134c-.097.097-.156.231-.156.378s.06.281.156.378l2.143 2.133c.096.096.229.155.376.155s.28-.059.376-.155l2.143-2.133c.097-.097.157-.23.157-.378s-.06-.282-.157-.378zm-2.519 1.759-1.386-1.381 1.386-1.381 1.387 1.381-1.387 1.381zm6.081-15.232-.258 1.035c.071.018 1.738.452 1.738 2.149h1.067c0-2.017-1.666-2.966-2.546-3.185zm2.547 4.251h-1.067v1.067h1.067V9.322z" style="fill:var(--color2, #2e2f42)"/></symbol><symbol id="icon-in" viewBox="0 0 32 32"><path fill="#4d5ae5" d="M32 16v.021c0 4.412-1.791 8.405-4.686 11.293C24.426 30.209 20.433 32 16.021 32h-.022H16h-.021c-4.412 0-8.405-1.791-11.293-4.686C1.791 24.426 0 20.433 0 16.021V16v.001-.021c0-4.412 1.791-8.405 4.686-11.293C7.574 1.792 11.567.001 15.979.001H16h-.001.021c4.412 0 8.405 1.791 11.293 4.686 2.895 2.888 4.686 6.881 4.686 11.293v.022-.001z" style="fill:var(--color1, #4d5ae5)"/><path fill="#f4f4fd" d="M22.397 22.4h.003v-4.696c0-2.296-.494-4.066-3.179-4.066-1.29 0-2.157.709-2.51 1.38h-.038v-1.166h-2.545v8.547h2.651v-4.232c0-1.114.211-2.192 1.59-2.192 1.36 0 1.38 1.272 1.38 2.264v4.16h2.648zM9.811 13.854h2.654V22.4H9.811v-8.546zM11.137 9.6c-.848 0-1.536.688-1.536 1.537s.688 1.552 1.536 1.552c.849 0 1.538-.704 1.538-1.552S11.985 9.6 11.137 9.6z" style="fill:var(--color3, #f4f4fd)"/></symbol><symbol id="icon-fc" viewBox="0 0 32 32"><path fill="#4d5ae5" d="M32 16v.021c0 4.412-1.791 8.405-4.686 11.293C24.426 30.209 20.433 32 16.021 32h-.022H16h-.021c-4.412 0-8.405-1.791-11.293-4.686C1.791 24.426 0 20.433 0 16.021V16v.001-.021c0-4.412 1.791-8.405 4.686-11.293C7.574 1.792 11.567.001 15.979.001H16h-.001.021c4.412 0 8.405 1.791 11.293 4.686 2.895 2.888 4.686 6.881 4.686 11.293v.022-.001z" style="fill:var(--color1, #4d5ae5)"/><path fill="#f4f4fd" d="M18.132 11.726H19.3V9.691c-.495-.058-1.068-.091-1.65-.091h-.056.003c-1.685 0-2.838 1.06-2.838 3.008V14.4H12.9v2.275h1.859V22.4h2.279v-5.724h1.784l.283-2.276h-2.068v-1.568c.001-.658.178-1.107 1.094-1.107z" style="fill:var(--color3, #f4f4fd)"/></symbol><symbol id="icon-twit" viewBox="0 0 32 32"><path fill="#4d5ae5" d="M32 16v.021c0 4.412-1.791 8.405-4.686 11.293C24.426 30.209 20.433 32 16.021 32h-.022H16h-.021c-4.412 0-8.405-1.791-11.293-4.686C1.791 24.426 0 20.433 0 16.021V16v.001-.021c0-4.412 1.791-8.405 4.686-11.293C7.574 1.792 11.567.001 15.979.001H16h-.001.021c4.412 0 8.405 1.791 11.293 4.686 2.895 2.888 4.686 6.881 4.686 11.293v.022-.001z" style="fill:var(--color1, #4d5ae5)"/><path fill="#f4f4fd" d="M22.4 12.031c-.44.197-.95.343-1.485.412l-.027.003c.544-.327.953-.831 1.149-1.432l.005-.018c-.479.289-1.037.509-1.63.63l-.034.006c-.48-.512-1.16-.83-1.915-.83-1.449 0-2.624 1.175-2.624 2.624v.001c0 .208.018.408.061.598-2.187-.11-4.111-1.151-5.398-2.731l-.011-.014c-.225.379-.358.836-.358 1.324 0 .906.458 1.704 1.155 2.177l.009.006c-.437-.012-.844-.13-1.199-.33l.013.007v.029c.002 1.266.895 2.322 2.085 2.575l.017.003c-.2.055-.43.086-.668.086h-.022.001-.041c-.161 0-.319-.016-.471-.048l.015.003c.349 1.049 1.309 1.798 2.449 1.828h.003c-.886.698-2.018 1.119-3.248 1.119h-.006c-.215 0-.422-.01-.628-.036 1.13.738 2.515 1.178 4.002 1.178h.025-.001c4.829 0 7.469-4 7.469-7.467 0-.116-.004-.228-.01-.339.52-.375.956-.827 1.303-1.344l.012-.019z" style="fill:var(--color3, #f4f4fd)"/></symbol><symbol id="icon-inst" viewBox="0 0 32 32"><path fill="#4d5ae5" d="M32 16v.021c0 4.412-1.791 8.405-4.686 11.293C24.426 30.209 20.433 32 16.021 32h-.022H16h-.021c-4.412 0-8.405-1.791-11.293-4.686C1.791 24.426 0 20.433 0 16.021V16v.001-.021c0-4.412 1.791-8.405 4.686-11.293C7.574 1.792 11.567.001 15.979.001H16h-.001.021c4.412 0 8.405 1.791 11.293 4.686 2.895 2.888 4.686 6.881 4.686 11.293v.022-.001z" style="fill:var(--color1, #4d5ae5)"/><path fill="#f4f4fd" d="M22.387 13.363c-.03-.68-.14-1.148-.298-1.553-.17-.444-.421-.823-.739-1.135l-.001-.001c-.312-.317-.69-.568-1.111-.73l-.022-.007c-.408-.158-.872-.268-1.552-.298-.686-.032-.904-.04-2.641-.04-1.738 0-1.956.008-2.638.038-.68.03-1.147.14-1.552.298-.445.169-.824.421-1.135.739l-.001.001c-.317.312-.568.69-.73 1.111l-.007.022c-.158.408-.267.872-.298 1.552-.032.686-.04.904-.04 2.642s.008 1.955.038 2.638c.03.68.14 1.148.298 1.553.162.43.415.815.74 1.136.32.324.708.577 1.133.737.408.158.872.268 1.553.298.682.03.9.038 2.638.038s1.955-.008 2.638-.038c.68-.03 1.148-.14 1.553-.298.863-.34 1.533-1.01 1.865-1.85l.008-.022c.158-.408.268-.874.298-1.554.03-.682.038-.9.038-2.638s-.002-1.956-.032-2.638zm-1.152 5.226c-.028.626-.133.963-.221 1.188-.22.56-.655.995-1.201 1.211l-.014.005c-.225.087-.565.192-1.187.219-.675.03-.878.038-2.586.038s-1.913-.008-2.586-.038c-.625-.027-.962-.132-1.188-.22-.288-.108-.534-.27-.735-.477-.207-.202-.369-.447-.473-.721l-.005-.014c-.088-.225-.192-.565-.22-1.187-.03-.675-.038-.878-.038-2.586s.008-1.913.038-2.586c.028-.625.133-.963.22-1.188.102-.278.266-.53.48-.735.208-.212.458-.375.736-.478.224-.088.565-.192 1.187-.22.675-.03.878-.038 2.586-.038 1.71 0 1.912.008 2.586.038.625.028.962.133 1.188.22.277.102.53.266.734.478.213.208.376.458.478.736.088.224.193.565.221 1.187.03.675.037.878.037 2.586s-.007 1.908-.037 2.583z" style="fill:var(--color3, #f4f4fd)"/><path fill="#f4f4fd" d="M16.024 12.713c-1.785.041-3.216 1.497-3.216 3.288s1.431 3.247 3.213 3.288h.004c1.785-.041 3.216-1.497 3.216-3.288s-1.431-3.247-3.212-3.288h-.004zm0 5.421c-1.178 0-2.134-.955-2.134-2.134s.955-2.134 2.134-2.134c1.178 0 2.134.955 2.134 2.134s-.955 2.134-2.134 2.134zm4.186-5.551c0 .424-.344.768-.768.768s-.768-.344-.768-.768c0-.424.344-.768.768-.768s.768.344.768.768z" style="fill:var(--color3, #f4f4fd)"/></symbol></defs></svg>